# xmcd
#
# Track frame offsets:
#	300
#	24410
#	43399
#	61168
#	79873
#	97625
#	114939
#	132964
#	150979
#	168016
#	188850
#
# Disc length: 2740 seconds
#
# Revision: 0
# Processed by: cddbd v1.5.2PL0 Copyright (c) Steve Scherf et al.
# Submitted via: EasyCDDAExtractor 16.0.8.2
#
DISCID=7a0ab00b
DTITLE=Συλλογικός δίσκος - Δροσουλίτες-Χριστόδ. Χάλαρης-Ν. Γκάτσος
DYEAR=1975
DGENRE=Έντεχνη
TTITLE0=Γαλάνη Δήμητρα - Ο δροσουλίτης
TTITLE1=Θεοδωρίδης Χρύσανθος - Του Ριζικάρη
TTITLE2=Γαλάνη Δήμητρα - Ο Μαυραϊλής
TTITLE3=Θεοδωρίδης Χρύσανθος - Κάτω στα Τριπόταμα
TTITLE4=Γαλάνη Δήμητρα - Το τραγούδι του Λειδινού
TTITLE5=Θεοδωρίδης Χρύσανθος - Μάννα μου, μάννα
TTITLE6=Γαλάνη Δήμητρα - Μιά Κομνηνή
TTITLE7=Θεοδωρίδης Χρύσανθος - Μαδριγάλι
TTITLE8=Γαλάνη Δήμητρα - Ο Ζαφείρης
TTITLE9=Θεοδωρίδης Χρύσανθος - Τα φλουριά
TTITLE10=Θεοδωρίδης Χρύσανθος - Είπα τραγούδι να σού γράψω[επί πλέον]
EXTD=
EXTT0=
EXTT1=
EXTT2=
EXTT3=
EXTT4=
EXTT5=
EXTT6=
EXTT7=
EXTT8=
EXTT9=
EXTT10=
PLAYORDER=
